<svg xmlns="http://www.w3.org/2000/svg" xmlns:xlink="http://www.w3.org/1999/xlink" viewBox="0 0 988.71 992.46"><defs><style>.cls-1{fill:url(#linear-gradient);}.cls-2{fill:url(#linear-gradient-2);}.cls-3{fill:url(#linear-gradient-3);}.cls-4{fill:url(#linear-gradient-4);}.cls-5{fill:url(#linear-gradient-5);}.cls-6{fill:url(#linear-gradient-6);}.cls-7{fill:url(#linear-gradient-7);}.cls-8{fill:url(#linear-gradient-8);}.cls-9{fill:url(#linear-gradient-9);}.cls-10{fill:url(#linear-gradient-10);}.cls-11{fill:url(#linear-gradient-11);}.cls-12{fill:url(#linear-gradient-12);}.cls-13{fill:url(#linear-gradient-13);}.cls-14{fill:url(#linear-gradient-14);}.cls-15{fill:url(#linear-gradient-15);}.cls-16{fill:url(#linear-gradient-16);}.cls-17{fill:url(#linear-gradient-17);}</style><linearGradient id="linear-gradient" y1="275.02" x2="116.14" y2="275.02" gradientTransform="matrix(1, 0, 0, -1, 0, 992.58)" gradientUnits="userSpaceOnUse"><stop offset="0" stop-color="#ee262c"/><stop offset="1" stop-color="#ee262c"/></linearGradient><linearGradient id="linear-gradient-2" x1="123.13" y1="254.05" x2="243.44" y2="254.05" xlink:href="#linear-gradient"/><linearGradient id="linear-gradient-3" x1="250.16" y1="254.1" x2="370" y2="254.1" xlink:href="#linear-gradient"/><linearGradient id="linear-gradient-4" x1="376.61" y1="275.02" x2="477.96" y2="275.02" xlink:href="#linear-gradient"/><linearGradient id="linear-gradient-5" x1="485.01" y1="255.24" x2="643.1" y2="255.24" xlink:href="#linear-gradient"/><linearGradient id="linear-gradient-6" x1="649.82" y1="254.05" x2="770.13" y2="254.05" xlink:href="#linear-gradient"/><linearGradient id="linear-gradient-7" x1="777.17" y1="255.3" x2="879.91" y2="255.3" xlink:href="#linear-gradient"/><linearGradient id="linear-gradient-8" x1="885.97" y1="255.3" x2="988.71" y2="255.3" xlink:href="#linear-gradient"/><linearGradient id="linear-gradient-9" x1="611.56" y1="107.97" x2="612.05" y2="107.97" gradientTransform="matrix(1, 0, 0, -1, 0, 992.58)" gradientUnits="userSpaceOnUse"><stop offset="0" stop-color="#91a0a1"/><stop offset="1" stop-color="#909fa0"/></linearGradient><linearGradient id="linear-gradient-10" x1="189.6" y1="89.37" x2="284.6" y2="89.37" xlink:href="#linear-gradient-9"/><linearGradient id="linear-gradient-11" x1="343.24" y1="90.29" x2="423.76" y2="90.29" xlink:href="#linear-gradient-9"/><linearGradient id="linear-gradient-12" x1="484.3" y1="105.69" x2="534.02" y2="105.69" xlink:href="#linear-gradient-9"/><linearGradient id="linear-gradient-13" x1="589.58" y1="89.27" x2="683.86" y2="89.27" xlink:href="#linear-gradient-9"/><linearGradient id="linear-gradient-14" x1="743.14" y1="68.82" x2="835.15" y2="68.82" xlink:href="#linear-gradient-9"/><linearGradient id="linear-gradient-15" x1="894.61" y1="89.41" x2="988.71" y2="89.41" xlink:href="#linear-gradient-9"/><linearGradient id="linear-gradient-16" x1="703.85" y1="683.64" x2="807.35" y2="686.64" xlink:href="#linear-gradient-9"/><linearGradient id="linear-gradient-17" x1="99.48" y1="663.33" x2="129.47" y2="672.33" gradientTransform="matrix(1, 0, 0, -1, 0, 992.58)" gradientUnits="userSpaceOnUse"><stop offset="0" stop-color="#ee2425"/><stop offset="1" stop-color="#ec2726"/></linearGradient></defs><title>Asset 1</title><g id="Layer_2" data-name="Layer 2"><g id="Layer_1-2" data-name="Layer 1"><path class="cls-1" d="M0,640H57.32q51,0,51,39.44,0,19.55-17.45,32.51,25.32,10.8,25.31,38.53,0,21.25-14.91,33.87a42.81,42.81,0,0,1-15.6,8.41q-8.31,2.38-22.42,2.39H54.32v-39.9h8c4.7,0,8-.58,9.94-1.76s2.89-3.24,2.89-6.19q0-7.5-11.79-7.5h-9V698.41q12.93,0,12.94-8.75,0-8.07-11.67-8.07H46.92V795.14H0V640Z"/><path class="cls-2" d="M193.51,752.63v44a58.59,58.59,0,0,1-9.7.91q-26,0-43.34-16.83t-17.34-42.17q0-24.66,17.51-41.82t42.59-17.17q28,0,44.09,16.09t16.12,43.93v55.58H200.22V742.63q0-9-4.45-14.33a14.78,14.78,0,0,0-12-5.34A16.23,16.23,0,0,0,172,727.85a16.56,16.56,0,0,0-.46,23.19A15.41,15.41,0,0,0,183,755.58,19.83,19.83,0,0,0,193.51,752.63Z"/><path class="cls-3" d="M327.13,743,370,741.38q-1.85,24.54-18.6,40.35t-40.8,15.79q-25.43,0-42.93-17.39t-17.51-42.62q0-24,17.68-41a61.12,61.12,0,0,1,80.55-3.64A56.76,56.76,0,0,1,369,727.05l-43.8,1.59q-5.66-7.26-14.33-7.27A16.27,16.27,0,0,0,294,738.19a16.78,16.78,0,0,0,5,12.39,17,17,0,0,0,12.54,5Q322.5,755.58,327.13,743Z"/><path class="cls-4" d="M419.83,640v47.4q11-7.85,22-7.85,16.63,0,26.4,11.82T478,723.3v71.84H434.74v-59.9q0-7.28-1.56-9.78c-1-1.66-3.06-2.5-6.07-2.5q-7.28,0-7.28,10.57v61.61H376.61V640Z"/><path class="cls-5" d="M643.1,795.14H599.88V734q0-7.05-1.5-9.78t-5.44-2.73q-7.28,0-7.28,12.62v61H542.44V734q0-7.05-1.56-9.78t-5.49-2.73q-7.15,0-7.16,12.62v61H485V725.35q0-19.1,13.06-32.45a42.61,42.61,0,0,1,31.66-13.36q19.18,0,34.44,15.92,17-15.91,34-15.92,21.61,0,34.67,15.46,10.29,12,10.29,35.12v65Z"/><path class="cls-6" d="M720.2,752.63v44a58.61,58.61,0,0,1-9.71.91q-26,0-43.33-16.83t-17.34-42.17q0-24.66,17.51-41.82t42.59-17.17q28,0,44.08,16.09t16.13,43.93v55.58H726.9V742.63q0-9-4.44-14.33a14.79,14.79,0,0,0-12-5.34,16.22,16.22,0,0,0-11.78,4.89,16.57,16.57,0,0,0-.47,23.19,15.45,15.45,0,0,0,11.45,4.54A19.83,19.83,0,0,0,720.2,752.63Z"/><path class="cls-7" d="M879.91,795.14H836.69v-64q0-9.78-8.21-9.78t-8.09,9.78v64H777.17v-63.2q0-22.16,14.91-37.34t36.52-15.17q24.72,0,39.64,17.62,11.67,13.76,11.67,38.3Z"/><path class="cls-8" d="M988.71,795.14H945.49v-64q0-9.78-8.21-9.78t-8.09,9.78v64H886v-63.2q0-22.16,14.91-37.34t36.52-15.17q24.72,0,39.63,17.62,11.67,13.76,11.68,38.3Z"/><path class="cls-9" d="M0,949.51V858.22q0-17,10.05-27.74t26.09-10.76q19,0,29.25,17.9,6.24-9.64,13.4-13.77t17.66-4.13q16.67,0,25.54,10.76t8.88,31v88H94.1V867.12q0-6.12-.95-8.11c-.64-1.33-1.92-2-3.85-2q-5.44,0-5.44,9.47v83H47.09V867.12q0-6-1-8.07t-3.9-2q-5.43,0-5.43,10.11v82.39Z"/><path class="cls-10" d="M238,855.06q19.2,0,32.92,14.15a48.82,48.82,0,0,1-.18,68,47,47,0,0,1-67.16,0,46.85,46.85,0,0,1-13.94-34.1q0-20.31,13.94-34.19T238,855.06Zm-.9,34.24a12.2,12.2,0,0,0-9.24,4,14.61,14.61,0,0,0,0,19.72,12.5,12.5,0,0,0,18.48,0,14.62,14.62,0,0,0,0-19.72A12.33,12.33,0,0,0,237.06,889.3Z"/><path class="cls-11" d="M423.76,949.51H389.89V897.28q0-8-6.43-8t-6.34,8v52.23H343.24V897.93q0-18.1,11.69-30.48a37.82,37.82,0,0,1,28.62-12.39q19.38,0,31.06,14.38,9.15,11.23,9.15,31.27v48.8Z"/><path class="cls-12" d="M518.17,822.87v35.44h15.22V895H518.17q0,11,3.4,15.21T534,914.35v36.46c-1.75.06-3,.09-3.89.09a45.13,45.13,0,0,1-21.69-5.47,44.18,44.18,0,0,1-16.35-14.85q-7.79-12-7.79-31.73v-76Z"/><path class="cls-13" d="M644.74,914.81v35.9a43.32,43.32,0,0,1-7.61.75q-20.37,0-34-13.73t-13.59-34.42q0-20.13,13.72-34.14a45,45,0,0,1,33.38-14q21.92,0,34.55,13.12t12.63,35.86v45.37H650V906.65q0-7.33-3.48-11.69a11.38,11.38,0,0,0-9.38-4.36,12.49,12.49,0,0,0-9.24,4,13.92,13.92,0,0,0-.36,18.92,11.84,11.84,0,0,0,9,3.71A15.11,15.11,0,0,0,644.74,914.81Z"/><path class="cls-14" d="M796.3,911.38V943.2a39.66,39.66,0,0,1-14,2.78q-16.39,0-27.76-12.71t-11.36-31.08q0-19.85,13.67-33.49t33.6-13.64a49,49,0,0,1,20.29,4.36,38.23,38.23,0,0,1,15.21,11.69q9.24,12.17,9.24,35.26V936.8q0,24.76-13.72,40.21T785.7,992.46q-6.71,0-16.93-3.43V957.48a27,27,0,0,0,13.4,3.72q9.15,0,14.13-6.17t5-17.68V902.56q0-14.56-11.5-14.56a11.45,11.45,0,0,0-8.56,3.85,12.44,12.44,0,0,0-3.67,8.86,12,12,0,0,0,3.49,8.81,11.68,11.68,0,0,0,8.65,3.53A14,14,0,0,0,796.3,911.38Z"/><path class="cls-15" d="M988.34,908.87H937a24.93,24.93,0,0,1,.46-16.42h17.2q-1.8-10.29-11.32-10.3A12.2,12.2,0,0,0,933,887.67q-4,5.52-4,14.15,0,9,3.85,14.57T943,922q5.07,0,9.78-5.19L972,940.51a46.71,46.71,0,0,1-30,10.85q-20.12,0-33.78-13.82t-13.68-34.23q0-20.32,13.81-34.33t33.92-14q19.65,0,33,13.69t13.36,33.72C988.71,903.74,988.58,905.9,988.34,908.87Z"/><path class="cls-16" d="M945.63,51Q902.58,0,821.71,0q-51,0-85.7,19.55T671,84.81Q621.33,0,529,0,451.27,0,402.48,51,398,55.62,394,60.53q39.79,37.8,39.8,106.9,0,75.58-66.35,125.68,96.24,41.76,96.24,149,0,82.19-56.69,131-25,21-53.27,30.61v11.14H532.12V224.56q0-47.9,26.37-47.9,14,0,18.89,9.66t4.84,38.24V614.79H760.63V221.48q0-44.82,26.37-44.82,14.06,0,18.68,9.44t4.61,38.46V614.79H988.71v-417Q988.71,101.95,945.63,51Z"/><path class="cls-17" d="M0,14.94H218q193.8,0,193.8,152.49,0,75.58-66.36,125.68,96.24,41.76,96.24,149,0,82.17-56.69,131-27.69,23.3-59.32,32.52t-85.26,9.23H206.54V460.54h30.33q26.79,0,37.79-6.81t11-24q0-29-44.82-29H206.54v-160q49.22,0,49.22-33.83,0-31.2-44.38-31.2h-33v439H0Z"/></g></g></svg>